<svg width="834" height="527" viewBox="0 0 834 527" fill="none" xmlns="http://www.w3.org/2000/svg">
<path d="M71.858 421.54V436.876H46.582V511H27.128V436.876H2.42V421.54H71.858ZM142.121 421.54V511H122.667V421.54H142.121ZM201.672 421.54H235.61C240.627 421.54 245.029 422.297 248.816 423.812C252.697 425.232 255.916 427.22 258.472 429.776C261.028 432.237 262.921 435.172 264.152 438.58C265.477 441.893 266.14 445.491 266.14 449.372C266.14 452.969 265.572 456.188 264.436 459.028C263.394 461.773 262.022 464.187 260.318 466.27C258.708 468.258 256.862 469.962 254.78 471.382C252.792 472.707 250.851 473.796 248.958 474.648L270.826 511H248.532L231.35 478.056H220.984V511H201.672V421.54ZM220.984 463.146H228.652C233.764 463.146 237.929 462.105 241.148 460.022C244.461 457.939 246.118 454.484 246.118 449.656C246.118 445.396 244.792 442.13 242.142 439.858C239.586 437.491 235.799 436.308 230.782 436.308H220.984V463.146ZM320.19 421.54H339.644V475.074C339.644 482.458 341.112 488.091 344.046 491.972C347.076 495.759 351.714 497.652 357.962 497.652C364.116 497.652 368.565 495.711 371.31 491.83C374.056 487.949 375.428 482.931 375.428 476.778V421.54H394.882V475.358C394.882 487.854 391.758 497.179 385.51 503.332C379.357 509.485 370.174 512.562 357.962 512.562C346.224 512.562 336.994 509.485 330.272 503.332C323.551 497.179 320.19 487.617 320.19 474.648V421.54ZM454.115 421.54H485.497C490.704 421.54 495.39 422.155 499.555 423.386C503.815 424.617 507.413 426.415 510.347 428.782C513.377 431.149 515.696 434.036 517.305 437.444C518.915 440.757 519.719 444.591 519.719 448.946C519.719 454.058 518.773 458.46 516.879 462.152C514.986 465.844 512.383 468.921 509.069 471.382C505.851 473.749 502.064 475.547 497.709 476.778C493.355 477.914 488.716 478.482 483.793 478.482H473.569V511H454.115V421.54ZM473.569 463.572H481.521C483.983 463.572 486.302 463.383 488.479 463.004C490.751 462.531 492.692 461.773 494.301 460.732C496.005 459.596 497.331 458.176 498.277 456.472C499.224 454.673 499.697 452.449 499.697 449.798C499.697 445.159 498.135 441.751 495.011 439.574C491.887 437.397 487.911 436.308 483.083 436.308H473.569V463.572ZM588.447 476.068H611.167L607.049 464.14C605.724 460.448 604.493 456.756 603.357 453.064C602.221 449.277 601.133 445.491 600.091 441.704H599.807C598.766 445.301 597.63 448.993 596.399 452.78C595.169 456.472 593.891 460.259 592.565 464.14L588.447 476.068ZM590.151 421.54H610.315L643.401 511H622.811L615.853 490.41H584.045L577.087 511H556.781L590.151 421.54ZM747.512 421.54V436.876H722.236V511H702.782V436.876H678.074V421.54H747.512ZM817.775 421.54V511H798.321V421.54H817.775Z" fill="#99222D"/>
<path opacity="0.901" fill-rule="evenodd" clip-rule="evenodd" d="M0.245148 104.331C5.29323 104.331 10.3412 104.331 15.3893 104.331C15.3893 117.668 15.3893 131.006 15.3893 144.342C10.3412 144.342 5.29323 144.342 0.245148 144.342C0.245148 131.006 0.245148 117.668 0.245148 104.331Z" fill="#951927"/>
<path opacity="0.901" fill-rule="evenodd" clip-rule="evenodd" d="M29.4517 104.331C34.4998 104.331 39.5478 104.331 44.5958 104.331C44.5958 117.668 44.5958 131.006 44.5958 144.342C39.5478 144.342 34.4998 144.342 29.4517 144.342C29.4517 131.006 29.4517 117.668 29.4517 104.331Z" fill="#951927"/>
<path opacity="0.9" fill-rule="evenodd" clip-rule="evenodd" d="M774.76 104.331C779.808 104.331 784.856 104.331 789.904 104.331C789.904 117.308 789.904 130.284 789.904 143.261C784.856 143.261 779.808 143.261 774.76 143.261C774.76 130.284 774.76 117.308 774.76 104.331Z" fill="#951927"/>
<path opacity="0.9" fill-rule="evenodd" clip-rule="evenodd" d="M802.885 104.331C807.933 104.331 812.98 104.331 818.029 104.331C818.029 117.308 818.029 130.284 818.029 143.261C812.98 143.261 807.933 143.261 802.885 143.261C802.885 130.284 802.885 117.308 802.885 104.331Z" fill="#951927"/>
<path opacity="0.995" fill-rule="evenodd" clip-rule="evenodd" d="M281.493 361.699C281.493 374.315 281.493 386.931 281.493 399.547C207.215 399.547 132.937 399.547 58.6582 399.547C58.6582 387.292 58.6582 375.035 58.6582 362.78C78.256 361.745 97.9074 361.385 117.612 361.699C118.334 289.247 118.334 216.794 117.612 144.342C97.6824 143.268 77.6711 142.908 57.5764 143.261C57.5764 130.644 57.5764 118.029 57.5764 105.413C132.576 105.413 207.576 105.413 282.575 105.413C282.575 117.668 282.575 129.924 282.575 142.179C262.744 142.179 242.912 142.179 223.08 142.179C223.08 214.992 223.08 287.805 223.08 360.617C242.74 360.261 262.211 360.621 281.493 361.699Z" fill="#130A0B"/>
<path opacity="0.995" fill-rule="evenodd" clip-rule="evenodd" d="M462.141 143.261C461.061 216.251 460.7 289.425 461.06 362.78C481.252 362.78 501.444 362.78 521.636 362.78C521.636 374.675 521.636 386.57 521.636 398.466C447.074 399.543 372.435 399.904 297.719 399.547C298.067 393.571 297.706 387.803 296.638 382.245C296.638 375.035 296.638 367.827 296.638 360.617C316.469 360.617 336.301 360.617 356.132 360.617C356.132 287.805 356.132 214.992 356.132 142.179C336.301 142.179 316.469 142.179 296.638 142.179C296.638 129.924 296.638 117.668 296.638 105.413C371.637 105.413 446.637 105.413 521.636 105.413C521.636 118.029 521.636 130.644 521.636 143.261C501.805 143.261 481.973 143.261 462.141 143.261Z" fill="#13090A"/>
<path opacity="0.998" fill-rule="evenodd" clip-rule="evenodd" d="M536.781 105.413C611.78 105.413 686.78 105.413 761.779 105.413C761.779 118.029 761.779 130.644 761.779 143.261C741.226 143.261 720.674 143.261 700.121 143.261C700.784 229.055 700.784 314.844 700.121 400.628C665.146 400.628 630.169 400.628 595.194 400.628C595.194 314.84 595.194 229.05 595.194 143.261C575.723 143.261 556.252 143.261 536.781 143.261C536.781 130.644 536.781 118.029 536.781 105.413Z" fill="#140A0B"/>
<path opacity="0.92" fill-rule="evenodd" clip-rule="evenodd" d="M239.306 158.4C244.355 158.4 249.402 158.4 254.45 158.4C254.45 220.76 254.45 283.118 254.45 345.478C249.402 345.478 244.355 345.478 239.306 345.478C239.306 283.118 239.306 220.76 239.306 158.4Z" fill="#951927"/>
<path opacity="0.892" fill-rule="evenodd" clip-rule="evenodd" d="M267.431 158.4C272.479 158.4 277.527 158.4 282.575 158.4C282.755 167.059 282.575 175.71 282.034 184.353C275.624 190.038 270.936 196.886 267.972 204.899C267.431 189.404 267.25 173.904 267.431 158.4Z" fill="#981F2B"/>
<path opacity="0.89" fill-rule="evenodd" clip-rule="evenodd" d="M297.719 158.4C302.768 158.4 307.815 158.4 312.864 158.4C313.044 173.544 312.864 188.683 312.323 203.818C308.972 196.031 304.284 189.181 298.26 183.272C297.719 174.989 297.54 166.699 297.719 158.4Z" fill="#971E2A"/>
<path opacity="0.92" fill-rule="evenodd" clip-rule="evenodd" d="M325.844 158.4C330.893 158.4 335.94 158.4 340.988 158.4C340.988 220.76 340.988 283.118 340.988 345.478C335.94 345.478 330.893 345.478 325.844 345.478C325.844 283.118 325.844 220.76 325.844 158.4Z" fill="#951927"/>
<path opacity="0.912" fill-rule="evenodd" clip-rule="evenodd" d="M477.286 158.4C482.694 158.4 488.103 158.4 493.511 158.4C493.692 172.462 493.511 186.52 492.971 200.574C487.351 203.382 482.303 206.986 477.826 211.387C477.286 193.729 477.105 176.066 477.286 158.4Z" fill="#961B29"/>
<path opacity="0.909" fill-rule="evenodd" clip-rule="evenodd" d="M506.492 158.4C511.54 158.4 516.588 158.4 521.636 158.4C521.636 171.377 521.636 184.353 521.636 197.33C516.931 196.044 512.244 196.044 507.574 197.33C506.493 184.373 506.133 171.396 506.492 158.4Z" fill="#961B29"/>
<path opacity="0.906" fill-rule="evenodd" clip-rule="evenodd" d="M535.699 158.4C540.747 158.4 545.795 158.4 550.843 158.4C551.024 176.427 550.843 194.45 550.302 212.469C546.004 208.34 541.317 204.736 536.24 201.655C535.699 187.241 535.518 172.822 535.699 158.4Z" fill="#961B29"/>
<path opacity="0.921" fill-rule="evenodd" clip-rule="evenodd" d="M563.824 158.4C568.872 158.4 573.919 158.4 578.968 158.4C578.968 239.143 578.968 319.885 578.968 400.628C573.919 400.628 568.872 400.628 563.824 400.628C563.824 319.885 563.824 239.143 563.824 158.4Z" fill="#951927"/>
<path opacity="0.905" fill-rule="evenodd" clip-rule="evenodd" d="M716.347 158.4C721.395 158.4 726.443 158.4 731.491 158.4C731.851 172.836 731.49 187.254 730.409 201.655C725.233 203.971 720.727 207.216 716.888 211.387C716.347 193.729 716.166 176.066 716.347 158.4Z" fill="#971C29"/>
<path opacity="0.904" fill-rule="evenodd" clip-rule="evenodd" d="M744.472 158.4C749.52 158.4 754.567 158.4 759.616 158.4C759.616 171.016 759.616 183.632 759.616 196.248C754.567 196.248 749.52 196.248 744.472 196.248C744.472 183.632 744.472 171.016 744.472 158.4Z" fill="#961A28"/>
<path opacity="0.906" fill-rule="evenodd" clip-rule="evenodd" d="M774.76 158.4C779.808 158.4 784.856 158.4 789.904 158.4C790.085 176.427 789.904 194.45 789.363 212.469C785.066 208.34 780.378 204.736 775.301 201.655C774.76 187.241 774.579 172.822 774.76 158.4Z" fill="#961B29"/>
<path opacity="0.921" fill-rule="evenodd" clip-rule="evenodd" d="M802.885 158.4C807.933 158.4 812.98 158.4 818.029 158.4C818.029 239.143 818.029 319.885 818.029 400.628C812.98 400.628 807.933 400.628 802.885 400.628C802.885 319.885 802.885 239.143 802.885 158.4Z" fill="#951927"/>
<path opacity="0.921" fill-rule="evenodd" clip-rule="evenodd" d="M0.245148 159.481C5.29323 159.481 10.3412 159.481 15.3893 159.481C15.3893 239.863 15.3893 320.246 15.3893 400.628C10.3412 400.628 5.29323 400.628 0.245148 400.628C0.245148 320.246 0.245148 239.863 0.245148 159.481Z" fill="#951927"/>
<path opacity="0.906" fill-rule="evenodd" clip-rule="evenodd" d="M29.4516 159.481C34.4997 159.481 39.5477 159.481 44.5958 159.481C44.776 173.904 44.5957 188.323 44.0549 202.737C38.5873 205.294 33.8999 208.898 29.9925 213.55C29.4517 195.531 29.2714 177.508 29.4516 159.481Z" fill="#961C29"/>
<path opacity="0.912" fill-rule="evenodd" clip-rule="evenodd" d="M58.6582 159.481C63.7063 159.481 68.7543 159.481 73.8024 159.481C74.1618 172.477 73.8013 185.454 72.7207 198.411C68.3938 196.97 64.0669 196.97 59.74 198.411C58.6593 185.454 58.2988 172.477 58.6582 159.481Z" fill="#961A28"/>
<path opacity="0.905" fill-rule="evenodd" clip-rule="evenodd" d="M86.783 159.481C91.8314 159.481 96.8787 159.481 101.927 159.481C102.108 177.148 101.927 194.81 101.386 212.469C97.5472 208.297 93.0407 205.053 87.8647 202.737C86.784 188.336 86.4227 173.918 86.783 159.481Z" fill="#971C29"/>
<path opacity="0.971" fill-rule="evenodd" clip-rule="evenodd" d="M284.739 201.655C297.87 199.835 306.344 205.242 310.159 217.876C311.572 232.7 304.901 241.351 290.147 243.829C271.484 240.039 265.535 229.225 272.299 211.387C275.593 206.96 279.739 203.716 284.739 201.655Z" fill="#98222D"/>
<path opacity="0.97" fill-rule="evenodd" clip-rule="evenodd" d="M746.635 201.655C765.739 200.747 774.214 209.759 772.056 228.69C764.699 243.73 753.701 247.155 739.063 238.963C728.416 226.774 729.136 215.24 741.226 204.359C743.19 203.54 744.992 202.639 746.635 201.655Z" fill="#99222D"/>
<path opacity="0.973" fill-rule="evenodd" clip-rule="evenodd" d="M509.737 201.655C527.963 202.422 535.715 211.793 532.994 229.771C528.492 240.586 520.379 245.091 508.656 243.288C495.42 238.571 490.552 229.379 494.052 215.713C496.805 208.14 502.034 203.455 509.737 201.655Z" fill="#99242E"/>
<path opacity="0.97" fill-rule="evenodd" clip-rule="evenodd" d="M61.9034 202.736C81.6901 203.593 89.4419 213.685 85.1605 233.015C73.8262 247.946 61.5667 248.666 48.3818 235.178C42.0606 219.687 46.5678 208.873 61.9034 202.736Z" fill="#98222D"/>
<path opacity="0.919" fill-rule="evenodd" clip-rule="evenodd" d="M788.822 231.934C789.903 287.982 790.263 344.214 789.904 400.628C784.856 400.628 779.808 400.628 774.76 400.628C774.579 348 774.76 295.374 775.301 242.747C780.377 239.771 784.885 236.167 788.822 231.934Z" fill="#961928"/>
<path opacity="0.922" fill-rule="evenodd" clip-rule="evenodd" d="M477.286 233.015C482.048 237.225 487.276 240.83 492.971 243.829C493.511 278.071 493.692 312.315 493.511 346.56C488.103 346.56 482.694 346.56 477.286 346.56C477.286 308.711 477.286 270.863 477.286 233.015Z" fill="#961A28"/>
<path opacity="0.917" fill-rule="evenodd" clip-rule="evenodd" d="M549.761 233.015C550.841 270.678 551.202 308.526 550.843 346.56C545.795 346.56 540.747 346.56 535.699 346.56C535.339 311.948 535.699 277.344 536.781 242.747C541.765 240.274 546.092 237.03 549.761 233.015Z" fill="#961A28"/>
<path opacity="0.917" fill-rule="evenodd" clip-rule="evenodd" d="M716.347 233.015C720.717 236.654 725.404 239.898 730.409 242.747C731.491 277.344 731.851 311.948 731.491 346.56C726.442 346.56 721.395 346.56 716.347 346.56C716.347 308.711 716.347 270.863 716.347 233.015Z" fill="#961A28"/>
<path opacity="0.917" fill-rule="evenodd" clip-rule="evenodd" d="M29.4517 234.096C33.8216 237.735 38.5091 240.979 43.5141 243.829C44.5957 278.065 44.9563 312.308 44.5958 346.56C39.5477 346.56 34.4998 346.56 29.4517 346.56C29.4517 309.071 29.4517 271.584 29.4517 234.096Z" fill="#961A28"/>
<path opacity="0.917" fill-rule="evenodd" clip-rule="evenodd" d="M100.846 235.178C101.925 272.121 102.286 309.248 101.927 346.56C96.8788 346.56 91.8315 346.56 86.7831 346.56C86.6024 312.675 86.7831 278.792 87.324 244.91C92.632 242.651 97.1395 239.407 100.846 235.178Z" fill="#961A28"/>
<path opacity="0.913" fill-rule="evenodd" clip-rule="evenodd" d="M267.431 240.585C270.734 248.416 275.601 255.265 282.034 261.131C282.575 289.244 282.756 317.36 282.575 345.478C277.527 345.478 272.479 345.478 267.431 345.478C267.431 310.514 267.431 275.549 267.431 240.585Z" fill="#961B29"/>
<path opacity="0.912" fill-rule="evenodd" clip-rule="evenodd" d="M311.782 241.666C312.861 276.085 313.222 310.689 312.863 345.478C307.815 345.478 302.768 345.478 297.719 345.478C297.539 317.36 297.719 289.244 298.26 261.131C304.656 255.899 309.163 249.411 311.782 241.666Z" fill="#961B29"/>
<path opacity="0.918" fill-rule="evenodd" clip-rule="evenodd" d="M506.492 248.154C511.541 248.154 516.588 248.154 521.636 248.154C521.636 280.956 521.636 313.758 521.636 346.56C516.588 346.56 511.541 346.56 506.492 346.56C506.492 313.758 506.492 280.956 506.492 248.154Z" fill="#961928"/>
<path opacity="0.916" fill-rule="evenodd" clip-rule="evenodd" d="M744.472 247.073C749.374 248.422 754.242 248.422 759.075 247.073C759.616 280.233 759.796 313.396 759.616 346.56C754.567 346.56 749.52 346.56 744.472 346.56C744.472 313.397 744.472 280.236 744.472 247.073Z" fill="#961928"/>
<path opacity="0.918" fill-rule="evenodd" clip-rule="evenodd" d="M58.6582 249.236C63.7063 249.236 68.7543 249.236 73.8024 249.236C73.8024 281.677 73.8024 314.118 73.8024 346.56C68.7543 346.56 63.7063 346.56 58.6582 346.56C58.6582 314.118 58.6582 281.677 58.6582 249.236Z" fill="#961928"/>
<path opacity="0.9" fill-rule="evenodd" clip-rule="evenodd" d="M29.4517 361.699C34.4998 361.699 39.5478 361.699 44.5958 361.699C44.5958 374.675 44.5958 387.652 44.5958 400.628C39.5478 400.628 34.4998 400.628 29.4517 400.628C29.4517 387.652 29.4517 374.675 29.4517 361.699Z" fill="#951927"/>
<path opacity="0.082" fill-rule="evenodd" clip-rule="evenodd" d="M462.141 143.261C462.141 216.073 462.141 288.886 462.141 361.699C482.162 361.342 501.993 361.702 521.636 362.78C501.444 362.78 481.252 362.78 461.06 362.78C460.699 289.425 461.061 216.252 462.141 143.261Z" fill="#8E8D8D"/>
<path opacity="0.9" fill-rule="evenodd" clip-rule="evenodd" d="M535.699 361.699C540.747 361.699 545.794 361.699 550.843 361.699C550.843 374.675 550.843 387.652 550.843 400.628C545.794 400.628 540.747 400.628 535.699 400.628C535.699 387.652 535.699 374.675 535.699 361.699Z" fill="#951927"/>
<path opacity="0.9" fill-rule="evenodd" clip-rule="evenodd" d="M730.409 361.699C735.458 361.699 740.505 361.699 745.553 361.699C745.553 374.675 745.553 387.652 745.553 400.628C740.505 400.628 735.458 400.628 730.409 400.628C730.409 387.652 730.409 374.675 730.409 361.699Z" fill="#951927"/>
<path opacity="0.082" fill-rule="evenodd" clip-rule="evenodd" d="M281.493 361.699C282.57 374.483 282.93 387.459 282.575 400.628C207.576 400.628 132.576 400.628 57.5765 400.628C57.2213 387.82 57.582 375.203 58.6582 362.78C58.6582 375.035 58.6582 387.292 58.6582 399.547C132.937 399.547 207.215 399.547 281.493 399.547C281.493 386.931 281.493 374.315 281.493 361.699Z" fill="#838282"/>
<path opacity="0.082" fill-rule="evenodd" clip-rule="evenodd" d="M296.638 382.245C297.706 387.803 298.067 393.571 297.719 399.547C372.435 399.904 447.074 399.543 521.636 398.466C447.006 400.625 372.007 401.345 296.638 400.628C296.638 394.5 296.638 388.373 296.638 382.245Z" fill="#777676"/>
<path d="M8.4375 57.625C8.4375 57.1667 8.625 56.7708 9 56.4375C9.41667 56.1042 9.91667 55.9375 10.5 55.9375H13.8125V43.875C13.8125 42.7083 13.4375 41.7292 12.6875 40.9375C11.9792 40.1042 11.1042 39.6875 10.0625 39.6875C9.02083 39.6875 8.125 39.9792 7.375 40.5625C6.66667 41.1458 6.3125 41.8333 6.3125 42.625C6.3125 43.5833 6.66667 44.375 7.375 45C8.125 45.625 9.02083 45.9375 10.0625 45.9375V50.125C7.89583 50.125 6.04167 49.3958 4.5 47.9375C2.95833 46.4375 2.1875 44.6667 2.1875 42.625C2.1875 40.6667 2.95833 39 4.5 37.625C6.04167 36.25 7.89583 35.5625 10.0625 35.5625C12.2292 35.5625 14.0833 36.375 15.625 38C17.2083 39.625 18 41.5833 18 43.875V55.9375H31.6875V40.125H20.875V36.375H42.9375V40.125H35.875V78H31.6875V60.125H18V63.4375C18 63.8958 17.7917 64.2917 17.375 64.625C16.9583 64.9583 16.4583 65.125 15.875 65.125C15.0417 65.125 13.5833 64.0833 11.5 62C9.45833 59.9167 8.4375 58.4583 8.4375 57.625ZM41.25 40.125V36.375H59.5625V40.125H52.4375V78H48.3125V40.125H41.25ZM57.875 40.125V36.375H86.8125V40.125H81.1875V49.6875C81.1875 52.2708 80.3125 54.4583 78.5625 56.25C76.8542 58 74.8125 58.875 72.4375 58.875C72.1042 58.875 71.6458 58.8125 71.0625 58.6875C70.5208 58.5208 69.8542 58.2917 69.0625 58C70.8542 61.125 72.9583 64.125 75.375 67C77.8333 69.8333 80.5833 72.5208 83.625 75.0625L81.1875 78C76.7292 74.2917 72.7083 70.0833 69.125 65.375C65.5417 60.625 62.4792 55.5417 59.9375 50.125L63.6875 48.0625C64.3958 50.0625 65.5417 51.6667 67.125 52.875C68.75 54.0833 70.5208 54.6875 72.4375 54.6875C73.6875 54.6875 74.75 54.2083 75.625 53.25C76.5417 52.2917 77 51.1042 77 49.6875V40.125H57.875ZM88.625 57.625C88.625 54.9583 89.4792 52.7083 91.1875 50.875C92.8958 49 94.9375 48.0625 97.3125 48.0625H113.562V40.125H85.125V36.375H124.812V40.125H117.75V78H113.562V52.1875H97.3125C96.0625 52.1875 94.9792 52.7292 94.0625 53.8125C93.1875 54.8542 92.75 56.125 92.75 57.625C92.75 60.2917 93.6875 63.1458 95.5625 66.1875C97.4792 69.2292 100.146 72.1875 103.562 75.0625L101.062 78C97.1458 74.6667 94.0833 71.2292 91.875 67.6875C89.7083 64.1458 88.625 60.7917 88.625 57.625ZM123.125 40.125V36.375H130.188C129.479 32.375 128.167 29.0833 126.25 26.5C124.375 23.9167 122.354 22.625 120.188 22.625C118.562 22.625 117.188 23.1667 116.062 24.25C114.938 25.2917 114.375 26.5625 114.375 28.0625C114.375 29.3958 114.667 30.7292 115.25 32.0625C115.833 33.3542 116.646 34.5208 117.688 35.5625H113.125C112.167 34.6042 111.438 33.4792 110.938 32.1875C110.438 30.8958 110.188 29.5208 110.188 28.0625C110.188 25.5208 111.167 23.375 113.125 21.625C115.042 19.8333 117.396 18.9375 120.188 18.9375C123.396 18.9375 126.333 20.5833 129 23.875C131.667 27.1667 133.438 31.3333 134.312 36.375H141.438V40.125H134.312V78H130.188V40.125H123.125ZM156.625 65.9375C158.792 65.9375 160.833 65.3542 162.75 64.1875C164.708 62.9792 166.271 61.3333 167.438 59.25V40.125H153.312C154.354 41.4167 155.167 42.7917 155.75 44.25C156.333 45.6667 156.625 47.0625 156.625 48.4375C156.625 50.8542 155.667 53 153.75 54.875C151.875 56.75 149.5 57.9375 146.625 58.4375C147.042 60.6042 148.188 62.3958 150.062 63.8125C151.938 65.2292 154.125 65.9375 156.625 65.9375ZM139.75 40.125V36.375H178.688V40.125H171.625V78H167.438V65.125C165.812 66.7083 164.062 67.9375 162.188 68.8125C160.354 69.6458 158.5 70.0625 156.625 70.0625C152.625 70.0625 149.188 68.625 146.312 65.75C143.479 62.8333 142.062 59.2917 142.062 55.125C145.229 55.125 147.75 54.5208 149.625 53.3125C151.5 52.0625 152.438 50.4375 152.438 48.4375C152.438 47.1042 152.083 45.7292 151.375 44.3125C150.667 42.8542 149.646 41.4583 148.312 40.125H139.75ZM214.438 62.1875C214.562 62.1875 214.896 62.125 215.438 62L216.938 61.75L223.188 57.625V40.125H207.375V55.125C207.375 57.0417 208.062 58.7083 209.438 60.125C210.854 61.5 212.521 62.1875 214.438 62.1875ZM196.75 40.125V36.375H234.438V40.125H227.375V78H223.188V62.1875L202.375 78L199.875 74.6875L212.375 65.5C209.708 64.8333 207.521 63.5417 205.812 61.625C204.104 59.6667 203.25 57.5 203.25 55.125V40.125H196.75ZM232.75 40.125V36.375H238.312L221.062 25.125L223.562 21.4375L241.875 36.375L233.125 18.0625L237.312 15.5625L244.188 36.375H251.062V40.125H243.938V78H239.812V40.125H232.75ZM267.812 70.5C270.646 70.5 273.521 69.7083 276.438 68.125C279.354 66.5 282.042 64.25 284.5 61.375V40.125H273.25V49.3125H260.75C259.583 49.3125 258.604 49.625 257.812 50.25C257.021 50.875 256.625 51.6667 256.625 52.625C256.625 53.5 257.167 54.3542 258.25 55.1875C259.375 55.9792 260.771 56.5 262.438 56.75C262.938 56.5 263.792 56.3125 265 56.1875C266.208 56.0208 267.854 55.9375 269.938 55.9375L272.438 59.6875H266.562C264.854 59.6875 263.375 60.2292 262.125 61.3125C260.917 62.3542 260.312 63.625 260.312 65.125C260.312 66.625 261.042 67.8958 262.5 68.9375C264 69.9792 265.771 70.5 267.812 70.5ZM249.375 40.125V36.375H295.688V40.125H288.625V78H284.5V66.75C281.917 69.2917 279.188 71.25 276.312 72.625C273.438 74 270.604 74.6875 267.812 74.6875C264.604 74.6875 261.854 73.7708 259.562 71.9375C257.312 70.0625 256.188 67.7917 256.188 65.125C256.188 63.875 256.396 62.7708 256.812 61.8125C257.271 60.8542 257.896 60.1458 258.688 59.6875C256.812 59.0208 255.292 58.0417 254.125 56.75C253 55.4167 252.438 54.0417 252.438 52.625C252.438 50.6667 253.25 49 254.875 47.625C256.542 46.25 258.5 45.5625 260.75 45.5625H269.062V40.125H249.375ZM294.062 40.125V36.375H300.812L285.75 18.0625L288.625 15.5625L304.938 36.375H312.375V40.125H305.25V78H301.125V40.125H294.062ZM310.688 40.125V36.375H317.75C317.375 35.875 317.062 35.1667 316.812 34.25C316.604 33.3333 316.5 32.25 316.5 31C316.5 27.6667 317.792 24.8333 320.375 22.5C323 20.125 326.146 18.9375 329.812 18.9375C334.188 18.9375 338.625 20.5625 343.125 23.8125C347.625 27.0625 351.354 31.2708 354.312 36.4375H349.375C347.042 32.4375 344.062 29.1458 340.438 26.5625C336.854 23.9375 333.312 22.625 329.812 22.625C327.271 22.625 325.104 23.4583 323.312 25.125C321.521 26.75 320.625 28.7083 320.625 31C320.625 32.25 320.729 33.3333 320.938 34.25C321.188 35.1667 321.5 35.875 321.875 36.375H329V40.125H321.875V78H317.75V40.125H310.688ZM327.312 40.125V36.375H361.312V40.125H354.25V78H350.125V40.125H339.688V60.5C339.688 61.1667 339.479 61.75 339.062 62.25C338.646 62.75 338.167 63 337.625 63C336.583 63 334.938 61.7083 332.688 59.125C330.438 56.5 329.312 54.6042 329.312 53.4375C329.312 53.0208 329.479 52.6458 329.812 52.3125C330.146 51.9792 330.521 51.8125 330.938 51.8125H333.875C334.333 51.8125 334.729 51.6042 335.062 51.1875C335.396 50.7708 335.562 50.2708 335.562 49.6875V40.125H327.312ZM359.625 40.125V36.375H408.125V40.125H386.125V51.375C387.042 49.8333 388.271 48.625 389.812 47.75C391.354 46.8333 393.042 46.375 394.875 46.375C397.542 46.375 399.792 47.4792 401.625 49.6875C403.5 51.8542 404.438 54.5 404.438 57.625C404.438 60.2917 403.75 62.9375 402.375 65.5625C401 68.1458 399.062 70.4792 396.562 72.5625L392.812 70.0625C395.146 68.4375 396.979 66.5208 398.312 64.3125C399.646 62.1042 400.312 59.875 400.312 57.625C400.312 55.6667 399.771 54 398.688 52.625C397.646 51.25 396.375 50.5625 394.875 50.5625C392.958 50.5625 391.167 51.2917 389.5 52.75C387.875 54.2083 386.75 56.1042 386.125 58.4375V78H382V65.5C381 66.6667 379.771 67.5833 378.312 68.25C376.896 68.9167 375.354 69.25 373.688 69.25C370.688 69.25 368.125 68.2083 366 66.125C363.917 64 362.875 61.4375 362.875 58.4375C362.875 55.1042 364.083 52.2708 366.5 49.9375C368.958 47.5625 371.896 46.375 375.312 46.375C376.312 46.375 377.167 46.4583 377.875 46.625C378.625 46.75 379.167 46.9375 379.5 47.1875L378.688 51.375C378.188 51.0833 377.646 50.875 377.062 50.75C376.521 50.625 375.938 50.5625 375.312 50.5625C373.062 50.5625 371.104 51.3333 369.438 52.875C367.812 54.4167 367 56.2708 367 58.4375C367 60.2708 367.646 61.8542 368.938 63.1875C370.271 64.4792 371.854 65.125 373.688 65.125C375.271 65.125 376.812 64.6458 378.312 63.6875C379.812 62.6875 381.042 61.3542 382 59.6875V40.125H359.625ZM406.438 40.125V36.375H413.5C412 32.2917 409.417 28.9792 405.75 26.4375C402.083 23.8958 398 22.625 393.5 22.625C390.833 22.625 388.583 23.2917 386.75 24.625C384.875 25.9167 383.938 27.4792 383.938 29.3125C383.938 30.8125 384.229 32.2292 384.812 33.5625C385.396 34.8542 386.208 35.9375 387.25 36.8125H382.688C381.771 36.0208 381.062 34.9792 380.562 33.6875C380.062 32.3958 379.812 30.9375 379.812 29.3125C379.812 26.4375 381.167 24 383.875 22C386.542 19.9583 389.75 18.9375 393.5 18.9375C398.833 18.9375 403.708 20.5417 408.125 23.75C412.583 26.9167 415.75 31.125 417.625 36.375H424.75V40.125H417.625V78H413.5V40.125H406.438ZM442.812 40.125V36.375H488.812V40.125H481.75V78H477.562V58H459.812C458.688 58.8333 457.396 59.25 455.938 59.25C455.604 59.25 455.271 59.2083 454.938 59.125C454.646 59.0417 454.417 58.9583 454.25 58.875L466.75 76.3125L463.438 78.4375L444.688 51.8125L448.062 49.3125C448.938 51.1875 449.958 52.6875 451.125 53.8125C452.333 54.9375 453.521 55.5 454.688 55.5C455.854 55.5 456.833 55.1042 457.625 54.3125C458.458 53.5208 458.875 52.5417 458.875 51.375V40.125H442.812ZM462.625 53.875H477.562V40.125H463V51.375C463 52.25 462.875 53.0833 462.625 53.875ZM476.875 27V21.1875H483.125V27H476.875ZM487.125 40.125V36.375H521.5V40.125H507.75V50.875C507.75 51.9583 507.667 52.9583 507.5 53.875H522.312V57.625H505.75C504.917 58.625 504 59.25 503 59.5C501.042 59.9167 499.854 59.8333 499.438 59.25L510.688 75.9375L507.75 78L489 50.9375L492.375 48.4375C493.625 50.6042 494.875 52.3333 496.125 53.625C497.375 54.875 498.521 55.5 499.562 55.5C500.646 55.5 501.583 55.1042 502.375 54.3125C503.167 53.5208 503.562 52.5417 503.562 51.375V40.125H487.125ZM539.375 69.6875C535.417 69.6875 531.896 68.3125 528.812 65.5625C525.729 62.8125 523.833 59.3333 523.125 55.125C523.583 55.2917 524.271 55.3958 525.188 55.4375C526.146 55.4792 527.542 55.5 529.375 55.5C532.375 55.5 534.917 54.6458 537 52.9375C539.125 51.2292 540.188 49.1875 540.188 46.8125C540.188 44.7292 539.521 42.9583 538.188 41.5C536.896 40.0417 535.333 39.3125 533.5 39.3125C531.917 39.3125 530.542 39.75 529.375 40.625C528.25 41.5 527.688 42.5833 527.688 43.875C527.688 44.9167 528.167 45.8125 529.125 46.5625C530.125 47.2708 531.312 47.625 532.688 47.625V51.8125C529.938 51.8125 527.729 51.0833 526.062 49.625C524.396 48.1667 523.562 46.25 523.562 43.875C523.562 41.5 524.521 39.4583 526.438 37.75C528.396 36 530.75 35.125 533.5 35.125C536.5 35.125 539.062 36.2708 541.188 38.5625C543.312 40.8125 544.375 43.5625 544.375 46.8125C544.375 50.3542 542.875 53.3958 539.875 55.9375C536.875 58.4375 533.229 59.6875 528.938 59.6875C529.771 61.4792 531.125 62.8958 533 63.9375C534.917 64.9792 537.042 65.5 539.375 65.5C541.625 65.5 543.938 64.8125 546.312 63.4375C548.729 62.0625 550.979 60.125 553.062 57.625V40.125H548.938V36.375H564.312V40.125H557.25V78H553.062V63C550.979 65.125 548.729 66.7708 546.312 67.9375C543.938 69.1042 541.625 69.6875 539.375 69.6875ZM562.625 40.125V36.375H580.938V40.125H573.812V78H569.688V40.125H562.625ZM581.312 53.0625C581.312 52.4792 581.604 51.9792 582.188 51.5625C582.771 51.1458 583.458 50.9375 584.25 50.9375H606.25V40.125H579.25V36.375H617.5V40.125H610.438V78H606.25V55.125H594.188C593.521 55.125 592.938 55.2917 592.438 55.625C591.938 55.9583 591.688 56.3333 591.688 56.75V60.9375C591.688 61.6042 591.479 62.1875 591.062 62.6875C590.646 63.1875 590.167 63.4375 589.625 63.4375C588.667 63.4375 587.042 62 584.75 59.125C582.458 56.2083 581.312 54.1875 581.312 53.0625ZM635.562 40.125V36.375H642.5C642.417 36.3333 642.354 35.5833 642.312 34.125C642.312 33.125 642.312 32 642.312 30.75C642.312 27.0417 643.833 24.125 646.875 22C649.917 19.9167 653.917 18.8958 658.875 18.9375C664.083 18.9375 669.083 20.5625 673.875 23.8125C678.667 27.0625 682.542 31.2708 685.5 36.4375H680.562C678.229 32.4375 675.104 29.1458 671.188 26.5625C667.312 23.9375 663.208 22.625 658.875 22.625C654.625 22.625 651.542 23.3333 649.625 24.75C647.583 26.25 646.521 28.25 646.438 30.75C646.396 32.4583 646.396 33.5833 646.438 34.125C646.646 35.1667 646.708 35.9167 646.625 36.375H653.875V40.125H646.75V78H642.625V40.125H635.562ZM655.688 57.625C655.688 54.9583 656.542 52.7083 658.25 50.875C659.958 49 662 48.0625 664.375 48.0625H680.625V40.125H652.188V36.375H691.875V40.125H684.812V78H680.625V52.1875H664.375C663.125 52.1875 662.042 52.7292 661.125 53.8125C660.25 54.8542 659.812 56.125 659.812 57.625C659.812 60.2917 660.75 63.1458 662.625 66.1875C664.542 69.2292 667.208 72.1875 670.625 75.0625L668.125 78C664.208 74.6667 661.146 71.2292 658.938 67.6875C656.771 64.1458 655.688 60.7917 655.688 57.625ZM690.188 40.125V36.375H731.75V40.125H710.312V48.875C711.521 47.6667 712.917 46.75 714.5 46.125C716.083 45.4583 717.729 45.125 719.438 45.125C721.854 45.125 723.917 46.1042 725.625 48.0625C727.333 49.9792 728.188 52.3333 728.188 55.125C728.188 57.6667 727.667 60.0625 726.625 62.3125C725.625 64.5625 724.208 66.4583 722.375 68L718.188 65.5C719.979 64.4583 721.396 63.0208 722.438 61.1875C723.521 59.3125 724.062 57.2917 724.062 55.125C724.062 53.4167 723.604 51.9583 722.688 50.75C721.812 49.5 720.729 48.875 719.438 48.875C718.354 48.875 717.271 49.1667 716.188 49.75C715.104 50.3333 714.125 51.1458 713.25 52.1875L710.312 50.5625C710.312 52.4792 709.771 54.1458 708.688 55.5625C707.646 56.9375 706.375 57.625 704.875 57.625C703.958 57.625 703.292 57.6042 702.875 57.5625C702.458 57.4792 702.167 57.3542 702 57.1875L715.312 75.0625L712 77.5625L692 49.6875L695.312 47.625C696.396 49.4167 697.542 50.8333 698.75 51.875C700 52.9167 701.208 53.4375 702.375 53.4375C703.458 53.4375 704.354 53.125 705.062 52.5C705.771 51.875 706.125 51.0833 706.125 50.125V40.125H690.188ZM745.75 61.75C747.458 61.75 749.062 61.2292 750.562 60.1875C752.062 59.1458 753.229 57.7292 754.062 55.9375V40.125H738.688V55.125C738.688 56.9583 739.375 58.5208 740.75 59.8125C742.125 61.1042 743.792 61.75 745.75 61.75ZM734.5 55.125V40.125H730.125V36.375H765.312V40.125H758.25V78H754.062V62.1875C752.854 63.3958 751.521 64.3333 750.062 65C748.646 65.625 747.208 65.9375 745.75 65.9375C742.625 65.9375 739.958 64.8958 737.75 62.8125C735.583 60.6875 734.5 58.125 734.5 55.125ZM763.625 40.125V36.375H770.562C770.479 36.3333 770.417 35.5833 770.375 34.125C770.375 33.125 770.375 32 770.375 30.75C770.375 27.0417 771.896 24.125 774.938 22C777.979 19.9167 781.979 18.8958 786.938 18.9375C792.146 18.9375 797.146 20.5625 801.938 23.8125C806.729 27.0625 810.604 31.2708 813.562 36.4375H808.625C806.292 32.4375 803.167 29.1458 799.25 26.5625C795.375 23.9375 791.271 22.625 786.938 22.625C782.688 22.625 779.604 23.3333 777.688 24.75C775.646 26.25 774.583 28.25 774.5 30.75C774.458 32.4583 774.458 33.5833 774.5 34.125C774.708 35.1667 774.771 35.9167 774.688 36.375H781.938V40.125H774.812V78H770.688V40.125H763.625ZM783.75 57.625C783.75 54.9583 784.604 52.7083 786.312 50.875C788.021 49 790.062 48.0625 792.438 48.0625H808.688V40.125H780.25V36.375H819.938V40.125H812.875V78H808.688V52.1875H792.438C791.188 52.1875 790.104 52.7292 789.188 53.8125C788.312 54.8542 787.875 56.125 787.875 57.625C787.875 60.2917 788.812 63.1458 790.688 66.1875C792.604 69.2292 795.271 72.1875 798.688 75.0625L796.188 78C792.271 74.6667 789.208 71.2292 787 67.6875C784.833 64.1458 783.75 60.7917 783.75 57.625Z" fill="#13090A"/>
</svg>
